<?xml version="1.0" encoding="UTF-8"?>
<!DOCTYPE svg PUBLIC "-//W3C//DTD SVG 1.1//EN" "http://www.w3.org/Graphics/SVG/1.1/DTD/svg11.dtd">
<!-- Creator: CorelDRAW 2020 (64 Bit) -->
<svg xmlns="http://www.w3.org/2000/svg" xml:space="preserve" width="100mm" height="90mm" version="1.1" style="shape-rendering:geometricPrecision; text-rendering:geometricPrecision; image-rendering:optimizeQuality; fill-rule:evenodd; clip-rule:evenodd"
viewBox="0 0 10000 9000"
 xmlns:xlink="http://www.w3.org/1999/xlink"
 xmlns:xodm="http://www.corel.com/coreldraw/odm/2003">
 <defs>
  <style type="text/css">
   <![CDATA[
    .fil0 {fill:#373435}
   ]]>
  </style>
 </defs>
 <g id="Camada_x0020_1">
  <metadata id="CorelCorpID_0Corel-Layer"/>
  <path class="fil0" d="M6705.44 4874.55c1032.64,0 1870.12,837.45 1870.12,1870.07 0,1032.64 -837.48,1870.06 -1870.12,1870.06 -904.78,0 -1659.65,-642.9 -1832.73,-1496.71 -323.9,1005.34 -1266.99,1732.95 -2379.89,1732.95 -1380.44,0 -2499.96,-1119.54 -2499.96,-2500.04 0,-1380.42 1119.52,-2499.97 2499.96,-2499.97 1274.75,0 2326.92,954.61 2480.64,2187.72 278.66,-682.73 949.17,-1164.08 1731.98,-1164.08zm2362.25 -2086.62c510.85,0 925.17,414.32 925.17,925.16 0,510.9 -414.32,925.22 -925.17,925.22 -510.9,0 -925.19,-414.32 -925.19,-925.22 0,-510.84 414.29,-925.16 925.19,-925.16zm0 -2637.79c510.85,0 925.17,414.32 925.17,925.2 0,510.84 -414.32,925.16 -925.17,925.16 -510.9,0 -925.19,-414.32 -925.19,-925.16 0,-510.88 414.29,-925.2 925.19,-925.2zm-2559.07 1299.22c510.9,0 925.16,414.3 925.16,925.2 0,510.84 -414.26,925.16 -925.16,925.16 -510.87,0 -925.19,-414.32 -925.19,-925.16 0,-510.9 414.32,-925.2 925.19,-925.2zm-2637.81 -1259.87c771.77,0 1397.64,625.87 1397.64,1397.64 0,771.77 -625.87,1397.64 -1397.64,1397.64 -771.75,0 -1397.62,-625.87 -1397.62,-1397.64 0,-771.77 625.87,-1397.64 1397.62,-1397.64z"/>
 </g>
</svg>
